<svg id="visual" viewBox="0 0 900 300" width="900" height="300" xmlns="http://www.w3.org/2000/svg" xmlns:xlink="http://www.w3.org/1999/xlink" version="1.1"><rect x="0" y="0" width="900" height="300" fill="#202731"></rect><path d="M0 169L21.5 158.5C43 148 86 127 128.8 122.2C171.7 117.3 214.3 128.7 257.2 130.8C300 133 343 126 385.8 128.5C428.7 131 471.3 143 514.2 143.5C557 144 600 133 642.8 127.8C685.7 122.7 728.3 123.3 771.2 131.8C814 140.3 857 156.7 878.5 164.8L900 173L900 0L878.5 0C857 0 814 0 771.2 0C728.3 0 685.7 0 642.8 0C600 0 557 0 514.2 0C471.3 0 428.7 0 385.8 0C343 0 300 0 257.2 0C214.3 0 171.7 0 128.8 0C86 0 43 0 21.5 0L0 0Z" fill="#3c31dd"></path><path d="M0 86L21.5 89.2C43 92.3 86 98.7 128.8 100.8C171.7 103 214.3 101 257.2 99.3C300 97.7 343 96.3 385.8 99.3C428.7 102.3 471.3 109.7 514.2 116.7C557 123.7 600 130.3 642.8 129C685.7 127.7 728.3 118.3 771.2 112.2C814 106 857 103 878.5 101.5L900 100L900 0L878.5 0C857 0 814 0 771.2 0C728.3 0 685.7 0 642.8 0C600 0 557 0 514.2 0C471.3 0 428.7 0 385.8 0C343 0 300 0 257.2 0C214.3 0 171.7 0 128.8 0C86 0 43 0 21.5 0L0 0Z" fill="#a111c1"></path><path d="M0 70L21.5 73.5C43 77 86 84 128.8 85.5C171.7 87 214.3 83 257.2 85.5C300 88 343 97 385.8 99C428.7 101 471.3 96 514.2 91.2C557 86.3 600 81.7 642.8 81.8C685.7 82 728.3 87 771.2 90.2C814 93.3 857 94.7 878.5 95.3L900 96L900 0L878.5 0C857 0 814 0 771.2 0C728.3 0 685.7 0 642.8 0C600 0 557 0 514.2 0C471.3 0 428.7 0 385.8 0C343 0 300 0 257.2 0C214.3 0 171.7 0 128.8 0C86 0 43 0 21.5 0L0 0Z" fill="#d100a4"></path><path d="M0 80L21.5 75.5C43 71 86 62 128.8 57.7C171.7 53.3 214.3 53.7 257.2 56.7C300 59.7 343 65.3 385.8 63.2C428.7 61 471.3 51 514.2 50C557 49 600 57 642.8 58.8C685.7 60.7 728.3 56.3 771.2 58.7C814 61 857 70 878.5 74.5L900 79L900 0L878.5 0C857 0 814 0 771.2 0C728.3 0 685.7 0 642.8 0C600 0 557 0 514.2 0C471.3 0 428.7 0 385.8 0C343 0 300 0 257.2 0C214.3 0 171.7 0 128.8 0C86 0 43 0 21.5 0L0 0Z" fill="#ee0086"></path><path d="M0 27L21.5 30.5C43 34 86 41 128.8 40.3C171.7 39.7 214.3 31.3 257.2 29.7C300 28 343 33 385.8 34.3C428.7 35.7 471.3 33.3 514.2 34.5C557 35.7 600 40.3 642.8 39.8C685.7 39.3 728.3 33.7 771.2 29C814 24.3 857 20.7 878.5 18.8L900 17L900 0L878.5 0C857 0 814 0 771.2 0C728.3 0 685.7 0 642.8 0C600 0 557 0 514.2 0C471.3 0 428.7 0 385.8 0C343 0 300 0 257.2 0C214.3 0 171.7 0 128.8 0C86 0 43 0 21.5 0L0 0Z" fill="#ff0066"></path></svg>