<svg id="visual" viewBox="0 0 900 300" width="900" height="300" xmlns="http://www.w3.org/2000/svg" xmlns:xlink="http://www.w3.org/1999/xlink" version="1.1"><rect x="0" y="0" width="900" height="300" fill="#202731"></rect><path d="M0 119L21.5 119.2C43 119.3 86 119.7 128.8 126.8C171.7 134 214.3 148 257.2 149.8C300 151.7 343 141.3 385.8 133.5C428.7 125.7 471.3 120.3 514.2 120.7C557 121 600 127 642.8 128.8C685.7 130.7 728.3 128.3 771.2 132.8C814 137.3 857 148.7 878.5 154.3L900 160L900 0L878.5 0C857 0 814 0 771.2 0C728.3 0 685.7 0 642.8 0C600 0 557 0 514.2 0C471.3 0 428.7 0 385.8 0C343 0 300 0 257.2 0C214.3 0 171.7 0 128.8 0C86 0 43 0 21.5 0L0 0Z" fill="#fa7268"></path><path d="M0 96L21.5 100.8C43 105.7 86 115.3 128.8 122.3C171.7 129.3 214.3 133.7 257.2 132.5C300 131.3 343 124.7 385.8 119.3C428.7 114 471.3 110 514.2 111.2C557 112.3 600 118.7 642.8 121.3C685.7 124 728.3 123 771.2 125.7C814 128.3 857 134.7 878.5 137.8L900 141L900 0L878.5 0C857 0 814 0 771.2 0C728.3 0 685.7 0 642.8 0C600 0 557 0 514.2 0C471.3 0 428.7 0 385.8 0C343 0 300 0 257.2 0C214.3 0 171.7 0 128.8 0C86 0 43 0 21.5 0L0 0Z" fill="#ef5f67"></path><path d="M0 91L21.5 89.3C43 87.7 86 84.3 128.8 85C171.7 85.7 214.3 90.3 257.2 94.7C300 99 343 103 385.8 98.2C428.7 93.3 471.3 79.7 514.2 73.7C557 67.7 600 69.3 642.8 75.8C685.7 82.3 728.3 93.7 771.2 100.5C814 107.3 857 109.7 878.5 110.8L900 112L900 0L878.5 0C857 0 814 0 771.2 0C728.3 0 685.7 0 642.8 0C600 0 557 0 514.2 0C471.3 0 428.7 0 385.8 0C343 0 300 0 257.2 0C214.3 0 171.7 0 128.8 0C86 0 43 0 21.5 0L0 0Z" fill="#e34c67"></path><path d="M0 42L21.5 47.2C43 52.3 86 62.7 128.8 63.5C171.7 64.3 214.3 55.7 257.2 53C300 50.3 343 53.7 385.8 58.3C428.7 63 471.3 69 514.2 68C557 67 600 59 642.8 57C685.7 55 728.3 59 771.2 57.7C814 56.3 857 49.7 878.5 46.3L900 43L900 0L878.5 0C857 0 814 0 771.2 0C728.3 0 685.7 0 642.8 0C600 0 557 0 514.2 0C471.3 0 428.7 0 385.8 0C343 0 300 0 257.2 0C214.3 0 171.7 0 128.8 0C86 0 43 0 21.5 0L0 0Z" fill="#d53867"></path><path d="M0 25L21.5 26.8C43 28.7 86 32.3 128.8 33.3C171.7 34.3 214.3 32.7 257.2 35C300 37.3 343 43.7 385.8 46.2C428.7 48.7 471.3 47.3 514.2 45.5C557 43.7 600 41.3 642.8 40C685.7 38.7 728.3 38.3 771.2 35.5C814 32.7 857 27.3 878.5 24.7L900 22L900 0L878.5 0C857 0 814 0 771.2 0C728.3 0 685.7 0 642.8 0C600 0 557 0 514.2 0C471.3 0 428.7 0 385.8 0C343 0 300 0 257.2 0C214.3 0 171.7 0 128.8 0C86 0 43 0 21.5 0L0 0Z" fill="#c62368"></path></svg>